# xmcd
#
# Track frame offsets:
#	150
#	14899
#	26554
#	40087
#	53218
#	73213
#	84438
#	99226
#	112528
#	128520
#
# Disc length: 1939 seconds
#
# Revision: 2
# Processed by: cddbd v1.4PL0 Copyright (c) Steve Scherf et al.
# Submitted via: EZCDDA 4.3.2
#
DISCID=7607910a
DTITLE=Herve Hert Leblanc - Mes Racines
DYEAR=1900
DGENRE=
TTITLE0=Colinda
TTITLE1=La Neige Tombe
TTITLE2=Y'en Avait Pour Tout le Monde
TTITLE3=Gamaliro
TTITLE4=Dis Leur Doucement
TTITLE5=Fete En Acadie
TTITLE6=Y'a Que Toi
TTITLE7=Pack Your Bags
TTITLE8=Quand J'etait Petit Garcon
TTITLE9=Frolic Des Acadiens
EXTD=
EXTT0=
EXTT1=
EXTT2=
EXTT3=
EXTT4=
EXTT5=
EXTT6=
EXTT7=
EXTT8=
EXTT9=
PLAYORDER=
